<svg xmlns="http://www.w3.org/2000/svg" width="18" height="18" viewBox="0 0 18 18" fill="none">
  <path d="M9 14.25C7.96165 14.25 6.94662 13.9421 6.08326 13.3652C5.2199 12.7883 4.54699 11.9684 4.14963 11.0091C3.75227 10.0498 3.64831 8.99418 3.85088 7.97578C4.05345 6.95738 4.55347 6.02192 5.28769 5.28769C6.02192 4.55347 6.95738 4.05345 7.97578 3.85088C8.99418 3.64831 10.0498 3.75227 11.0091 4.14963C11.9684 4.54699 12.7883 5.2199 13.3652 6.08326C13.9421 6.94662 14.25 7.96165 14.25 9C14.2484 10.3919 13.6948 11.7263 12.7106 12.7106C11.7263 13.6948 10.3919 14.2484 9 14.25Z" fill="#F26522"/>
</svg>