<svg xmlns="http://www.w3.org/2000/svg" width="982" height="184" viewBox="0 0 982 184" fill="none">
  <path d="M0 184V0H67.5443C93.5229 0 113.613 7.97333 127.815 23.92C142.189 39.8667 149.377 62.56 149.377 92C149.377 121.44 142.189 144.133 127.815 160.08C113.613 176.027 93.5229 184 67.5443 184H0ZM67.5443 36.8H38.9679V147.2H67.5443C81.2263 147.2 91.9641 142.293 99.7577 132.48C107.724 122.667 111.708 109.173 111.708 92C111.708 74.6733 107.724 61.18 99.7577 51.52C91.9641 41.7067 81.2263 36.8 67.5443 36.8Z" fill="white" fill-opacity="0.12"/>
  <path d="M346.296 184V0H403.449L446.314 103.5L456.705 128.8H459.303V0H496.972V184H439.819L396.955 80.5L386.563 55.2H383.965V184H346.296Z" fill="white" fill-opacity="0.12"/>
  <path d="M531.749 184V0H570.717V75.9L638.261 0H687.62L620.596 74.06L687.62 184H640.859L592.798 104.42L570.717 128.8V184H531.749Z" fill="white" fill-opacity="0.12"/>
  <path d="M893.673 184V36.8H844.314V0H982V36.8H932.641V184H893.673Z" fill="white" fill-opacity="0.12"/>
  <path fill-rule="evenodd" clip-rule="evenodd" d="M212.811 0L155.658 184H196.185L207.096 147.2L218.267 110.4L234.633 55.2L239.829 36.8H242.427L247.622 55.2L263.989 110.4L275.16 147.2L286.071 184H327.117L269.964 0H212.811Z" fill="white" fill-opacity="0.12"/>
  <path fill-rule="evenodd" clip-rule="evenodd" d="M704.263 184V147.2H743.231H828.96V184H704.263ZM743.231 109.48H825.842V72.68H743.231H704.263V109.48H743.231ZM825.842 36.8H743.231H704.263V0H825.842V36.8Z" fill="white" fill-opacity="0.12"/>
</svg>