<svg xmlns="http://www.w3.org/2000/svg" width="191" height="184" viewBox="0 0 191 184" fill="none">
  <path d="M108.344 8.39464C108.769 7.32547 108.917 6.16638 109.209 5.05341C109.971 2.14538 112.617 0 115.764 0H149.466C152.613 0 155.259 2.14538 156.021 5.05341C156.313 6.16638 156.024 7.32547 155.599 8.39464L89.1223 175.605C88.6973 176.675 88.5497 177.834 88.258 178.947C87.4958 181.855 84.8498 184 81.7027 184H48.0009C44.8538 184 42.2078 181.855 41.4456 178.947C41.1539 177.834 41.4429 176.675 41.868 175.605L108.344 8.39464Z" fill="#464B53"/>
  <path d="M183.957 75.1491C187.317 75.1491 190.106 77.5948 190.641 80.8033C190.764 81.5415 190.641 82.2925 190.458 83.0182L184.232 107.758C184.049 108.484 183.988 109.235 183.865 109.973C183.33 113.181 180.541 115.627 177.181 115.627L6.73335 115.627C3.37316 115.627 0.584201 113.181 0.0495122 109.973C-0.0735071 109.235 0.0494017 108.484 0.232048 107.758L6.45833 83.0182C6.64098 82.2925 6.70281 81.5415 6.82583 80.8033C7.36052 77.5948 10.1495 75.1491 13.5097 75.1491L183.957 75.1491Z" fill="#464B53"/>
</svg>