<svg width="161" height="38" viewBox="0 0 161 38" fill="none" xmlns="http://www.w3.org/2000/svg">
<g clip-path="url(#clip0_3001_5905)">
<path d="M122.216 12.5353C121.731 11.2289 122.697 9.83953 124.091 9.83953H141.205L130.402 34.5973L122.216 12.5353Z" fill="#7DD5EE" fill-opacity="0.6"/>
<path d="M151.318 31.7595C151.929 33.0847 150.961 34.5973 149.502 34.5973H130.402L141.205 9.83953L151.318 31.7595Z" fill="#635AB0" fill-opacity="0.5"/>
<path d="M144.925 5.70575C144.425 4.66811 143.375 4.00854 142.223 4.00854H125.356C123.881 4.00854 122.914 5.54915 123.554 6.87707L133.888 28.3118C134.388 29.3494 135.438 30.009 136.59 30.009H153.457C154.931 30.009 155.899 28.4684 155.259 27.1405L144.925 5.70575Z" fill="#5CA77F" fill-opacity="0.6"/>
<path d="M132.684 1.88583C133.139 0.746851 134.242 0 135.469 0H156.562C157.977 0 158.945 1.42905 158.419 2.74278L145.369 35.3691C144.913 36.5081 143.81 37.2549 142.583 37.2549H121.49C120.075 37.2549 119.108 35.8259 119.633 34.5121L132.684 1.88583Z" fill="#F26522"/>
<path d="M-0.371094 29.8691V8.13086H7.62804C10.7046 8.13086 13.0839 9.07285 14.7657 10.9568C16.4681 12.8408 17.3193 15.5219 17.3193 19C17.3193 22.4781 16.4681 25.1591 14.7657 27.0431C13.0839 28.9271 10.7046 29.8691 7.62804 29.8691H-0.371094ZM7.62804 12.4785H4.24379V25.5214H7.62804C9.24838 25.5214 10.52 24.9418 11.443 23.7824C12.3865 22.623 12.8582 21.0289 12.8582 19C12.8582 16.953 12.3865 15.3588 11.443 14.2176C10.52 13.0582 9.24838 12.4785 7.62804 12.4785Z" fill="black"/>
<path d="M40.6401 29.8691V8.13086H47.4086L52.485 20.3586L53.7156 23.3476H54.0233V8.13086H58.4843V29.8691H51.7158L46.6395 17.6413L45.4088 14.6523H45.1012V29.8691H40.6401Z" fill="black"/>
<path d="M62.6029 29.8691V8.13086H67.2178V17.0979L75.2169 8.13086H81.0624L73.1248 16.8805L81.0624 29.8691H75.5246L69.8329 20.4673L67.2178 23.3476V29.8691H62.6029Z" fill="black"/>
<path d="M105.465 29.8691V12.4785H99.6193V8.13086H115.925V12.4785H110.08V29.8691H105.465Z" fill="black"/>
<path fill-rule="evenodd" clip-rule="evenodd" d="M24.8317 8.13086L18.0632 29.8691H22.8627L24.1549 25.5214L25.4778 21.1738L27.4161 14.6523L28.0314 12.4785H28.339L28.9544 14.6523L30.8926 21.1738L32.2155 25.5214L33.5077 29.8691H38.3687L31.6002 8.13086H24.8317Z" fill="black"/>
<path fill-rule="evenodd" clip-rule="evenodd" d="M83.0334 29.8691V25.5214H87.6483H97.801V29.8691H83.0334ZM87.6483 21.0651H97.4318V16.7175H87.6483H83.0334V21.0651H87.6483ZM97.4318 12.4785H87.6483H83.0334V8.13086H97.4318V12.4785Z" fill="black"/>
<path d="M140.456 8.39736C140.503 8.27979 140.519 8.15234 140.551 8.02997C140.635 7.71021 140.926 7.47431 141.272 7.47431H144.978C145.324 7.47431 145.614 7.71021 145.698 8.02997C145.73 8.15234 145.699 8.27979 145.652 8.39735L138.342 26.7832C138.296 26.9008 138.279 27.0282 138.247 27.1506C138.164 27.4704 137.873 27.7063 137.527 27.7063H133.821C133.475 27.7063 133.184 27.4704 133.1 27.1506C133.068 27.0282 133.1 26.9008 133.146 26.7832L140.456 8.39736Z" fill="white"/>
<path d="M148.77 15.7374C149.14 15.7374 149.446 16.0063 149.505 16.3591C149.518 16.4403 149.505 16.5229 149.485 16.6027L148.8 19.323C148.78 19.4028 148.773 19.4854 148.76 19.5665C148.701 19.9193 148.394 20.1882 148.025 20.1882L129.283 20.1882C128.914 20.1882 128.607 19.9193 128.548 19.5665C128.535 19.4854 128.548 19.4028 128.568 19.323L129.253 16.6027C129.273 16.5229 129.28 16.4403 129.293 16.3591C129.352 16.0063 129.659 15.7374 130.028 15.7374L148.77 15.7374Z" fill="white"/>
</g>
<defs>
<clipPath id="clip0_3001_5905">
<rect width="160.196" height="38" fill="white"/>
</clipPath>
</defs>
</svg>
