<svg xmlns="http://www.w3.org/2000/svg" width="20" height="20" viewBox="0 0 20 20" fill="none">
  <path fill-rule="evenodd" clip-rule="evenodd" d="M1.81966 17.7758C1.80396 17.8323 1.80344 17.892 1.81815 17.9487C1.83286 18.0055 1.86228 18.0574 1.90344 18.0991C1.94461 18.1409 1.99606 18.171 2.0526 18.1866C2.10915 18.2021 2.16878 18.2024 2.22549 18.1875L6.06466 17.1842C7.28273 17.8439 8.64606 18.1896 10.0313 18.19H10.0347C14.6063 18.19 18.333 14.485 18.333 9.93C18.3358 8.84379 18.1226 7.76787 17.7057 6.76484C17.2888 5.76181 16.6766 4.85171 15.9047 4.0875C15.1341 3.31701 14.2188 2.70648 13.2114 2.29102C12.204 1.87556 11.1244 1.66338 10.0347 1.66667C5.463 1.66667 1.73633 5.37167 1.73633 9.92583C1.73633 11.375 2.11799 12.7983 2.84466 14.0542L1.81966 17.7758ZM7.40466 5.975C7.55716 5.97917 7.72633 5.9875 7.88716 6.34417C7.99383 6.58167 8.173 7.01917 8.31966 7.37583C8.43383 7.65333 8.52716 7.88167 8.5505 7.92833C8.60466 8.035 8.63716 8.1575 8.56716 8.30167L8.54383 8.35C8.48716 8.46667 8.44716 8.55 8.35216 8.65833L8.233 8.8C8.16216 8.88667 8.09133 8.97167 8.03133 9.03167C7.92383 9.13833 7.81299 9.25333 7.93633 9.46667C8.05966 9.68 8.493 10.3817 9.13216 10.9475C9.59965 11.3691 10.136 11.7074 10.718 11.9475C10.7763 11.9725 10.8236 11.9936 10.8597 12.0108C11.0738 12.1175 11.2013 12.1008 11.3247 11.9575C11.4488 11.8133 11.8605 11.3333 12.0055 11.12C12.1455 10.9067 12.2888 10.94 12.4872 11.0133C12.6855 11.0875 13.7405 11.605 13.9547 11.7108L14.0738 11.7692C14.223 11.84 14.3238 11.8892 14.3672 11.9608C14.4205 12.0517 14.4205 12.4775 14.2438 12.9792C14.0622 13.4792 13.188 13.9592 12.7922 13.9958L12.6797 14.0092C12.3163 14.0525 11.8563 14.1092 10.2163 13.4633C8.19466 12.6683 6.86049 10.6967 6.59133 10.2975L6.54716 10.2342L6.54299 10.2275C6.41966 10.0633 5.66883 9.05917 5.66883 8.0225C5.66883 7.03083 6.15799 6.51417 6.3805 6.27917L6.41966 6.2375C6.49168 6.15614 6.57968 6.09048 6.67817 6.04461C6.77666 5.99873 6.88354 5.97362 6.99216 5.97083C7.13633 5.97083 7.28133 5.97083 7.40466 5.975Z" fill="#5CA77F"/>
</svg>